<?xml version="1.0" encoding="UTF-8" standalone="no" ?>
<!DOCTYPE svg PUBLIC "-//W3C//DTD SVG 1.1//EN" "http://www.w3.org/Graphics/SVG/1.1/DTD/svg11.dtd">
<svg xmlns="http://www.w3.org/2000/svg" xmlns:xlink="http://www.w3.org/1999/xlink" version="1.1" width="1080" height="1080" viewBox="0 0 1080 1080" xml:space="preserve">
<desc>Created with Fabric.js 5.2.4</desc>
<defs>
</defs>
<g transform="matrix(1 0 0 1 540 540)" id="a310c43a-4daf-418e-abf0-d3d1b564633f"  >
<rect style="stroke: none; stroke-width: 1; stroke-dasharray: none; stroke-linecap: butt; stroke-dashoffset: 0; stroke-linejoin: miter; stroke-miterlimit: 4; fill: rgb(255,255,255); fill-rule: nonzero; opacity: 1; visibility: hidden;" vector-effect="non-scaling-stroke"  x="-540" y="-540" rx="0" ry="0" width="1080" height="1080" />
</g>
<g transform="matrix(1 0 0 1 540 540)" id="2c32520c-4a87-4e5d-8bae-030519e60d6e"  >
</g>
<g transform="matrix(1 0 0 1 540 540)"  >
<g style="" vector-effect="non-scaling-stroke"   >
		<g transform="matrix(1.56 0 0 1.56 -253.91 207.58)"  >
<path style="stroke: rgb(0,0,0); stroke-width: 1; stroke-dasharray: none; stroke-linecap: butt; stroke-dashoffset: 0; stroke-linejoin: miter; stroke-miterlimit: 4; fill: rgb(255,152,0); fill-rule: nonzero; opacity: 1;" vector-effect="non-scaling-stroke"  transform=" translate(-93.5, -388.8)" d="M 93.5 329.2 C 54.8 329.2 25.599999999999994 343.5 25.599999999999994 362.5 L 25.599999999999994 415.1 C 25.599999999999994 434.1 54.8 448.40000000000003 93.5 448.40000000000003 C 132.2 448.40000000000003 161.4 434.1 161.4 415.1 L 161.4 362.5 C 161.4 343.6 132.2 329.2 93.5 329.2 z M 39.6 379.1 C 51 387.20000000000005 70.7 392.40000000000003 93.5 392.40000000000003 C 116.3 392.40000000000003 136 387.20000000000005 147.4 379.1 L 147.4 396.3 C 139.70000000000002 404.5 119.7 411.7 93.5 411.7 C 67.3 411.7 47.4 404.5 39.6 396.3 L 39.6 379.1 z M 93.5 343.2 C 126.4 343.2 147.4 354.59999999999997 147.4 362.5 L 147.4 369.9 C 139.70000000000002 378.09999999999997 119.7 385.29999999999995 93.5 385.29999999999995 C 67.3 385.29999999999995 47.4 378.09999999999997 39.6 369.9 L 39.6 362.5 C 39.6 354.7 60.6 343.2 93.5 343.2 z M 93.5 434.5 C 60.6 434.5 39.6 423.1 39.6 415.2 L 39.6 405.4 C 51 413.5 70.7 418.7 93.5 418.7 C 116.3 418.7 136 413.5 147.4 405.4 L 147.4 415.2 C 147.4 423 126.4 434.5 93.5 434.5 z" stroke-linecap="round" />
</g>
		<g transform="matrix(1.56 0 0 1.56 0 166.48)"  >
<path style="stroke: rgb(0,0,0); stroke-width: 1; stroke-dasharray: none; stroke-linecap: butt; stroke-dashoffset: 0; stroke-linejoin: miter; stroke-miterlimit: 4; fill: rgb(255,152,0); fill-rule: nonzero; opacity: 1;" vector-effect="non-scaling-stroke"  transform=" translate(-256, -362.5)" d="M 256 276.6 C 217.3 276.6 188.1 290.90000000000003 188.1 309.90000000000003 L 188.1 415.1 C 188.1 434.1 217.29999999999998 448.40000000000003 256 448.40000000000003 C 294.70000000000005 448.40000000000003 323.9 434.1 323.9 415.1 L 323.9 309.9 C 323.9 290.9 294.7 276.6 256 276.6 z M 309.9 369.9 C 302.2 378.09999999999997 282.2 385.29999999999995 255.99999999999997 385.29999999999995 C 229.79999999999995 385.29999999999995 209.89999999999998 378.09999999999997 202.09999999999997 369.9 L 202.09999999999997 352.7 C 213.49999999999997 360.8 233.19999999999996 366 255.99999999999997 366 C 278.79999999999995 366 298.5 360.8 309.9 352.7 L 309.9 369.9 z M 309.9 343.6 C 302.2 351.8 282.2 359 255.99999999999997 359 C 229.79999999999995 359 209.89999999999998 351.8 202.09999999999997 343.6 L 202.09999999999997 326.40000000000003 C 213.49999999999997 334.50000000000006 233.19999999999996 339.70000000000005 255.99999999999997 339.70000000000005 C 278.79999999999995 339.70000000000005 298.5 334.50000000000006 309.9 326.40000000000003 L 309.9 343.6 z M 202.1 379.1 C 213.5 387.20000000000005 233.2 392.40000000000003 256 392.40000000000003 C 278.8 392.40000000000003 298.5 387.20000000000005 309.9 379.1 L 309.9 396.3 C 302.2 404.5 282.2 411.7 255.99999999999997 411.7 C 229.79999999999995 411.7 209.89999999999998 404.5 202.09999999999997 396.3 L 202.09999999999997 379.1 z M 256 290.6 C 288.9 290.6 309.9 302 309.9 309.90000000000003 L 309.9 317.3 C 302.2 325.5 282.2 332.7 255.99999999999997 332.7 C 229.79999999999995 332.7 209.89999999999998 325.5 202.09999999999997 317.3 L 202.09999999999997 309.90000000000003 C 202.1 302.1 223.1 290.6 256 290.6 z M 256 434.5 C 223.1 434.5 202.1 423.1 202.1 415.2 L 202.1 405.4 C 213.5 413.5 233.2 418.7 256 418.7 C 278.8 418.7 298.5 413.5 309.9 405.4 L 309.9 415.2 C 309.9 423 288.9 434.5 256 434.5 z" stroke-linecap="round" />
</g>
		<g transform="matrix(1.56 0 0 1.56 253.91 125.39)"  >
<path style="stroke: rgb(0,0,0); stroke-width: 1; stroke-dasharray: none; stroke-linecap: butt; stroke-dashoffset: 0; stroke-linejoin: miter; stroke-miterlimit: 4; fill: rgb(255,152,0); fill-rule: nonzero; opacity: 1;" vector-effect="non-scaling-stroke"  transform=" translate(-418.5, -336.2)" d="M 418.5 224 C 379.8 224 350.6 238.3 350.6 257.3 L 350.6 415.1 C 350.6 434.1 379.8 448.40000000000003 418.5 448.40000000000003 C 457.2 448.40000000000003 486.4 434.1 486.4 415.1 L 486.4 257.3 C 486.4 238.3 457.2 224 418.5 224 z M 472.4 369.9 C 464.7 378.09999999999997 444.7 385.29999999999995 418.5 385.29999999999995 C 392.3 385.29999999999995 372.4 378.09999999999997 364.6 369.9 L 364.6 352.7 C 376 360.8 395.70000000000005 366 418.5 366 C 441.29999999999995 366 461 360.8 472.4 352.7 L 472.4 369.9 z M 472.4 343.6 C 464.7 351.8 444.7 359 418.5 359 C 392.3 359 372.4 351.8 364.6 343.6 L 364.6 326.40000000000003 C 376 334.50000000000006 395.70000000000005 339.70000000000005 418.5 339.70000000000005 C 441.29999999999995 339.70000000000005 461 334.50000000000006 472.4 326.40000000000003 L 472.4 343.6 z M 472.4 317.3 C 464.7 325.5 444.7 332.7 418.5 332.7 C 392.3 332.7 372.4 325.5 364.6 317.3 L 364.6 300.1 C 376 308.20000000000005 395.70000000000005 313.40000000000003 418.5 313.40000000000003 C 441.29999999999995 313.40000000000003 461 308.20000000000005 472.4 300.1 L 472.4 317.3 z M 472.4 291 C 464.7 299.2 444.7 306.4 418.5 306.4 C 392.3 306.4 372.4 299.2 364.6 291 L 364.6 273.8 C 376 281.90000000000003 395.70000000000005 287.1 418.5 287.1 C 441.29999999999995 287.1 461 281.90000000000003 472.4 273.8 L 472.4 291 z M 364.6 379.1 C 376 387.20000000000005 395.70000000000005 392.40000000000003 418.5 392.40000000000003 C 441.29999999999995 392.40000000000003 461 387.20000000000005 472.4 379.1 L 472.4 396.3 C 464.7 404.5 444.7 411.7 418.5 411.7 C 392.3 411.7 372.4 404.5 364.6 396.3 L 364.6 379.1 z M 418.5 238 C 451.4 238 472.4 249.4 472.4 257.3 L 472.4 264.7 C 464.7 272.9 444.7 280.09999999999997 418.5 280.09999999999997 C 392.3 280.09999999999997 372.4 272.9 364.6 264.7 L 364.6 257.3 C 364.6 249.5 385.6 238 418.5 238 z M 418.5 434.5 C 385.6 434.5 364.6 423.1 364.6 415.2 L 364.6 405.4 C 376 413.5 395.70000000000005 418.7 418.5 418.7 C 441.29999999999995 418.7 461 413.5 472.4 405.4 L 472.4 415.2 C 472.4 423 451.4 434.5 418.5 434.5 z" stroke-linecap="round" />
</g>
		<g transform="matrix(1.56 0 0 1.56 0 -129.14)"  >
<path style="stroke: rgb(0,0,0); stroke-width: 1; stroke-dasharray: none; stroke-linecap: butt; stroke-dashoffset: 0; stroke-linejoin: miter; stroke-miterlimit: 4; fill: rgb(255,152,0); fill-rule: nonzero; opacity: 1;" vector-effect="non-scaling-stroke"  transform=" translate(-256, -173.3)" d="M 93.5 283.1 C 107.7 283.1 119.3 271.5 119.3 257.3 C 119.3 256.6 119.3 255.9 119.2 255.3 L 235.10000000000002 212.5 C 239.8 218.9 247.40000000000003 223.1 256 223.1 C 270.2 223.1 281.8 211.5 281.8 197.29999999999998 C 281.8 194.49999999999997 281.40000000000003 191.89999999999998 280.6 189.39999999999998 L 401.70000000000005 108.89999999999998 C 406.20000000000005 112.79999999999998 412.1 115.09999999999998 418.50000000000006 115.09999999999998 C 432.70000000000005 115.09999999999998 444.30000000000007 103.49999999999999 444.30000000000007 89.29999999999998 C 444.30000000000007 75.09999999999998 432.70000000000005 63.499999999999986 418.50000000000006 63.499999999999986 C 404.30000000000007 63.499999999999986 392.70000000000005 75.09999999999998 392.70000000000005 89.29999999999998 C 392.70000000000005 92.09999999999998 393.1 94.69999999999999 393.90000000000003 97.19999999999999 L 272.80000000000007 177.7 C 268.30000000000007 173.79999999999998 262.4000000000001 171.5 256.00000000000006 171.5 C 241.80000000000007 171.5 230.20000000000005 183.1 230.20000000000005 197.3 C 230.20000000000005 198 230.20000000000005 198.70000000000002 230.30000000000004 199.3 L 114.40000000000003 242.10000000000002 C 109.70000000000003 235.70000000000002 102.10000000000004 231.50000000000003 93.50000000000003 231.50000000000003 C 79.30000000000003 231.50000000000003 67.70000000000003 243.10000000000002 67.70000000000003 257.3 C 67.70000000000003 271.5 79.3 283.1 93.5 283.1 z M 418.5 77.5 C 425 77.5 430.3 82.8 430.3 89.3 C 430.3 95.8 425 101.1 418.5 101.1 C 412 101.1 406.7 95.8 406.7 89.3 C 406.7 82.8 412 77.5 418.5 77.5 z M 256 185.6 C 262.5 185.6 267.8 190.9 267.8 197.4 C 267.8 203.9 262.5 209.20000000000002 256 209.20000000000002 C 251 209.20000000000002 246.7 206.00000000000003 245 201.60000000000002 C 245 201.60000000000002 245 201.50000000000003 245 201.50000000000003 C 245 201.50000000000003 245 201.50000000000003 245 201.40000000000003 C 244.5 200.10000000000002 244.3 198.80000000000004 244.3 197.40000000000003 C 244.2 190.9 249.5 185.6 256 185.6 z M 93.5 245.5 C 100 245.5 105.3 250.8 105.3 257.3 C 105.3 263.8 100 269.1 93.5 269.1 C 87 269.1 81.7 263.8 81.7 257.3 C 81.7 250.8 87 245.5 93.5 245.5 z" stroke-linecap="round" />
</g>
</g>
</g>
</svg>